<?xml version="1.0" encoding="UTF-8"?>
<svg xmlns="http://www.w3.org/2000/svg" xmlns:xlink="http://www.w3.org/1999/xlink" width="208pt" height="208pt" viewBox="0 0 208 208" version="1.1">
<g id="surface1">
<path style=" stroke:none;fill-rule:nonzero;fill:#E31E25;fill-opacity:1;" d="M 155.359375 16.25 C 152.28125 16.34375 149.203125 16.988281 146.25 17.972656 C 134.433594 21.945313 124.304688 31.054688 114.242188 41.117188 L 49.242188 106.117188 C 43.457031 111.902344 39.023438 118.953125 37.671875 127.292969 C 36.316406 135.632813 38.839844 145.171875 46.042969 152.40625 C 53.429688 159.792969 63.308594 162.007813 71.648438 160.53125 C 79.988281 159.054688 86.972656 154.558594 92.328125 149.203125 L 163.730469 77.804688 C 166.070313 75.894531 167.148438 72.847656 166.46875 69.894531 C 165.792969 66.96875 163.484375 64.660156 160.5625 63.984375 C 157.605469 63.308594 154.558594 64.382813 152.652344 66.722656 L 81.25 138.125 C 77.863281 141.511719 73.1875 144.25 68.9375 145.019531 C 64.691406 145.789063 61.089844 145.296875 57.121094 141.324219 C 52.996094 137.203125 52.535156 133.722656 53.183594 129.753906 C 53.828125 125.785156 56.320313 121.199219 60.320313 117.195313 L 125.320313 52.195313 C 134.832031 42.6875 143.972656 35.421875 151.175781 32.992188 C 158.375 30.5625 163.546875 31.085938 171.855469 39.394531 C 178.074219 45.578125 184.660156 51.179688 186.382813 56.875 C 187.246094 59.707031 187.246094 62.539063 185.398438 67.214844 C 183.550781 71.894531 179.519531 78.265625 171.855469 85.929688 C 139.171875 118.613281 114.089844 143.695313 100.453125 157.328125 C 88.359375 169.425781 76.910156 177.519531 66.722656 179.734375 C 56.535156 181.949219 46.871094 179.582031 34.222656 166.933594 C 21.574219 154.28125 17.140625 142.003906 18.464844 129.261719 C 19.789063 116.519531 27.546875 102.703125 41.855469 88.390625 C 59.152344 71.09375 95.285156 37.917969 95.285156 37.917969 C 97.683594 36.132813 98.855469 33.117188 98.300781 30.160156 C 97.746094 27.207031 95.5625 24.835938 92.699219 24.035156 C 89.804688 23.207031 86.699219 24.128906 84.695313 26.34375 C 84.695313 26.34375 48.535156 59.089844 30.53125 77.0625 C 14.589844 93.007813 4.554688 110.117188 2.707031 127.785156 C 0.863281 145.449219 8 162.871094 23.144531 178.011719 C 38.253906 193.152344 54.597656 198.570313 69.925781 195.246094 C 85.25 191.921875 98.515625 181.425781 111.535156 168.410156 C 125.167969 154.773438 150.25 129.691406 182.9375 97.007813 C 191.613281 88.328125 197.214844 80.605469 200.171875 73.125 C 203.125 65.644531 203.25 58.289063 201.402344 52.195313 C 197.738281 40.007813 187.859375 33.207031 182.9375 28.3125 C 177.304688 22.683594 171.054688 19.113281 164.714844 17.480469 C 161.546875 16.648438 158.4375 16.15625 155.359375 16.25 Z "/>
</g>
</svg>
