<svg width="25" height="25" viewBox="0 0 25 25" fill="none" xmlns="http://www.w3.org/2000/svg">
<path d="M12.5017 0C5.59834 0 0.00195312 5.59656 0.00195312 12.4999C0.00195312 19.403 5.59834 25 12.5017 25C19.405 25 25.0018 19.403 25.0018 12.4999C25.0018 5.59639 19.405 0 12.5017 0ZM12.5397 18.3971V18.3969H12.4634H7.12402C7.12402 14.4922 10.5534 14.4931 11.3144 13.4721L11.4015 13.0065C10.3323 12.4647 9.57755 11.1584 9.57755 9.63051C9.57755 7.61766 10.8869 5.98564 12.5017 5.98564C14.1164 5.98564 15.4258 7.61766 15.4258 9.63051C15.4258 11.1454 14.6844 12.4435 13.6295 12.994L13.7287 13.5231C14.5636 14.4946 17.8789 14.5579 17.8789 18.3971H12.5397Z" fill="#E31E24"/>
</svg>
