<svg width="18" height="16" viewBox="0 0 18 16" fill="none" xmlns="http://www.w3.org/2000/svg">
<path d="M17.6471 1.50568H16.7647L16.8353 0.94097C16.8353 0.835087 16.8 0.729205 16.7647 0.658617C16.6941 0.588028 16.5882 0.552734 16.5176 0.552734H1.55294C1.44706 0.552734 1.34118 0.588028 1.30588 0.658617C1.23529 0.729205 1.2 0.835087 1.23529 0.94097L1.30588 1.50568H0.352941C0.141176 1.50568 0 1.64685 0 1.85862V4.50568C0 6.37626 0.811765 8.10568 2.15294 9.41156L2.82353 15.1292C2.85882 15.3057 3 15.4468 3.17647 15.4468H14.8235C15 15.4468 15.1412 15.3057 15.1765 15.1292L15.8471 9.41156C17.1882 8.10568 18 6.37626 18 4.50568V1.85862C18 1.64685 17.8588 1.50568 17.6471 1.50568ZM0.741176 4.47038V2.21156H1.34118L2.04706 8.17626C1.23529 7.11744 0.741176 5.84685 0.741176 4.47038ZM14.5059 14.741H3.49412L3.38824 13.8233H14.6118L14.5059 14.741ZM14.6824 13.1174H3.31765L2.96471 10.1174C4.55294 11.3527 6.67059 12.0939 9 12.0939C11.3294 12.0939 13.4471 11.3527 15.0353 10.1174L14.6824 13.1174ZM15.1412 9.09391C13.6235 10.5057 11.4353 11.388 8.96471 11.388C6.49412 11.388 4.34118 10.4704 2.82353 9.09391L1.94118 1.25862H16.0588L15.1412 9.09391ZM17.2941 4.50568C17.2941 5.84685 16.8 7.11744 15.9882 8.21156L16.6941 2.24685H17.2941V4.50568Z" fill="#E31E24"/>
</svg>
