<?xml version="1.0" encoding="UTF-8"?>
<svg xmlns="http://www.w3.org/2000/svg" xmlns:xlink="http://www.w3.org/1999/xlink" width="500pt" height="500pt" viewBox="0 0 500 500" version="1.1">
<g id="surface1">
<path style=" stroke:none;fill-rule:nonzero;fill:#E31E25;fill-opacity:1;" d="M 248.015625 0 C 151.753906 0 72.351563 68.164063 69.753906 154.390625 C 69.5625 155.824219 69.445313 157.21875 69.445313 158.730469 C 69.445313 158.960938 69.445313 159.15625 69.445313 159.351563 C 69.445313 159.464844 69.445313 159.542969 69.445313 159.660156 C 69.445313 159.855469 69.445313 160.085938 69.445313 160.28125 C 69.445313 160.472656 69.445313 160.707031 69.445313 160.898438 L 69.445313 406.746094 C 69.445313 434.375 92.347656 456.660156 124.628906 471.851563 C 156.910156 487.042969 200.195313 496.03125 248.015625 496.03125 C 295.835938 496.03125 339.121094 487.042969 371.402344 471.851563 C 403.683594 456.660156 426.585938 434.375 426.585938 406.746094 L 426.585938 160.898438 C 426.585938 160.707031 426.585938 160.472656 426.585938 160.28125 C 426.585938 160.164063 426.585938 160.085938 426.585938 159.96875 C 426.585938 159.855469 426.585938 159.777344 426.585938 159.660156 C 426.585938 159.351563 426.585938 159.039063 426.585938 158.730469 C 426.585938 157.21875 426.472656 155.824219 426.277344 154.390625 C 423.679688 68.164063 344.277344 0 248.015625 0 Z M 248.015625 19.839844 C 321.53125 19.839844 382.371094 63.167969 400.855469 121.527344 C 392.332031 116.101563 382.0625 111.375 370.472656 107.265625 C 338.464844 95.949219 295.527344 89.285156 248.015625 89.285156 C 200.503906 89.285156 157.566406 95.949219 125.558594 107.265625 C 113.972656 111.375 103.703125 116.101563 95.175781 121.527344 C 113.660156 63.167969 174.503906 19.839844 248.015625 19.839844 Z M 248.015625 109.128906 C 293.628906 109.128906 334.9375 115.636719 363.964844 125.867188 C 378.496094 130.984375 389.964844 137.261719 397.136719 143.230469 C 404.304688 149.195313 406.746094 154.3125 406.746094 158.730469 C 406.746094 159.039063 406.746094 159.351563 406.746094 159.660156 C 406.4375 163.882813 403.839844 168.652344 397.136719 174.230469 C 389.964844 180.199219 378.496094 186.476563 363.964844 191.59375 C 334.9375 201.824219 293.628906 208.332031 248.015625 208.332031 C 202.402344 208.332031 161.09375 201.824219 132.070313 191.59375 C 117.535156 186.476563 106.066406 180.199219 98.894531 174.230469 C 92.039063 168.496094 89.480469 163.652344 89.285156 159.351563 C 89.285156 159.15625 89.285156 158.925781 89.285156 158.730469 C 89.285156 154.3125 91.726563 149.195313 98.894531 143.230469 C 106.066406 137.261719 117.535156 130.984375 132.070313 125.867188 C 161.09375 115.636719 202.402344 109.128906 248.015625 109.128906 Z M 89.285156 191.59375 C 98.859375 198.839844 111.066406 205.078125 125.558594 210.195313 C 157.566406 221.507813 200.503906 228.175781 248.015625 228.175781 C 295.527344 228.175781 338.464844 221.507813 370.472656 210.195313 C 384.96875 205.078125 397.175781 198.839844 406.746094 191.59375 L 406.746094 406.746094 C 406.746094 422.945313 391.789063 440.34375 363.035156 453.867188 C 334.277344 467.394531 293.316406 476.191406 248.015625 476.191406 C 202.714844 476.191406 161.753906 467.394531 133 453.867188 C 104.246094 440.34375 89.285156 422.945313 89.285156 406.746094 Z M 139.507813 269.71875 C 138.773438 269.757813 138.035156 269.832031 137.339844 270.027344 C 132.457031 270.800781 128.890625 275.027344 128.96875 279.949219 L 128.96875 372.644531 C 128.929688 376.210938 130.828125 379.542969 133.929688 381.324219 C 133.929688 381.324219 178.300781 406.746094 248.015625 406.746094 C 317.730469 406.746094 362.101563 381.324219 362.101563 381.324219 C 365.203125 379.542969 367.101563 376.210938 367.0625 372.644531 L 367.0625 279.949219 C 367.179688 276.652344 365.628906 273.515625 362.957031 271.617188 C 360.28125 269.679688 356.832031 269.214844 353.734375 270.335938 C 353.734375 270.335938 304.167969 287.699219 248.015625 287.699219 C 191.863281 287.699219 142.300781 270.335938 142.300781 270.335938 C 141.40625 269.988281 140.476563 269.792969 139.507813 269.71875 Z M 148.808594 292.660156 C 163.921875 297.308594 199.652344 307.539063 248.015625 307.539063 C 296.378906 307.539063 332.109375 297.308594 347.222656 292.660156 L 347.222656 366.132813 C 340.984375 369.503906 307.230469 386.90625 248.015625 386.90625 C 188.800781 386.90625 155.046875 369.503906 148.808594 366.132813 Z "/>
</g>
</svg>
