<?xml version="1.0" encoding="UTF-8"?>
<svg xmlns="http://www.w3.org/2000/svg" xmlns:xlink="http://www.w3.org/1999/xlink" width="480pt" height="480pt" viewBox="0 0 480 480" version="1.1">
<g id="surface1">
<path style=" stroke:none;fill-rule:nonzero;fill:#E31E25;fill-opacity:1;" d="M 88.28125 39.921875 L 20.078125 40.3125 L 20.3125 80.3125 L 61.71875 80.078125 L 127.578125 238.125 L 103.59375 276.484375 C 86.875 303.203125 107.265625 340 138.828125 340 L 380 340 L 380 300 L 138.828125 300 C 136.640625 300 136.328125 299.53125 137.5 297.65625 L 161.09375 260 L 310.390625 260 C 324.921875 260 338.359375 252.109375 345.390625 239.375 L 417.421875 109.6875 C 424.84375 96.40625 415.234375 80 400 80 L 105 80 Z M 140 360 C 117.890625 360 100 377.890625 100 400 C 100 422.109375 117.890625 440 140 440 C 162.109375 440 180 422.109375 180 400 C 180 377.890625 162.109375 360 140 360 Z M 340 360 C 317.890625 360 300 377.890625 300 400 C 300 422.109375 317.890625 440 340 440 C 362.109375 440 380 422.109375 380 400 C 380 377.890625 362.109375 360 340 360 Z "/>
</g>
</svg>
