<?xml version="1.0" encoding="utf-8"?>
<!-- Generator: Adobe Illustrator 24.0.0, SVG Export Plug-In . SVG Version: 6.00 Build 0)  -->
<svg version="1.1" id="Layer_1" xmlns="http://www.w3.org/2000/svg" xmlns:xlink="http://www.w3.org/1999/xlink" x="0px" y="0px"
	 viewBox="0 0 16 16" style="enable-background:new 0 0 16 16;" xml:space="preserve">
<style type="text/css">
	.st0{fill:#E31E24;}
</style>
<g id="XMLID_1_">
	<g>
		<path class="st0" d="M3.1,14.1c0.5,0,1-0.2,1.3-0.6L11,6.9c0.3-0.3,0.4-0.9,0-1.2c-0.2-0.2-0.4-0.3-0.6-0.3
			c-0.2,0-0.4,0.1-0.6,0.2L6.4,9.1C6.3,9.2,6.2,9.2,6.1,9.2c-0.1,0-0.2,0-0.3-0.1L5.6,8.9c-0.2-0.2-0.2-0.4,0-0.6L9,4.9
			c0.4-0.4,0.9-0.6,1.4-0.6s1,0.2,1.4,0.6c0.4,0.4,0.6,0.9,0.6,1.4c0,0.6-0.2,1.1-0.6,1.4l-6.6,6.6c-0.6,0.6-1.3,0.9-2.2,0.9
			s-1.6-0.3-2.2-0.9c-1.2-1.2-1.2-3.1,0-4.3L9,1.9c0.8-0.8,1.8-1.2,2.9-1.2c1.1,0,2.1,0.4,2.9,1.2c1.6,1.6,1.6,4.2,0,5.7l-6.2,6.2
			C8.6,13.9,8.4,14,8.3,14c-0.1,0-0.2,0-0.3-0.1l-0.2-0.2c-0.1-0.1-0.1-0.2-0.1-0.3c0-0.1,0-0.2,0.1-0.3l6.1-6.1
			c1.1-1.1,1.2-3,0-4.1c-0.6-0.6-1.3-0.9-2.1-0.9c-0.8,0-1.5,0.3-2.1,0.9l-8.1,8.1c-0.4,0.4-0.6,0.8-0.6,1.3s0.2,1,0.6,1.3
			C2.1,13.9,2.6,14.1,3.1,14.1z"/>
		<path class="st0" d="M1.8,13.5c0.3,0.4,0.8,0.5,1.3,0.5s1-0.2,1.3-0.5L11,6.9c0.3-0.3,0.3-0.9,0-1.2c-0.2-0.2-0.4-0.3-0.6-0.3
			c-0.2,0-0.4,0.1-0.6,0.2L6.4,9.1C6.3,9.2,6.2,9.2,6.1,9.2C6,9.2,5.9,9.2,5.8,9.1L5.6,8.9c-0.2-0.2-0.2-0.4,0-0.6L9,4.8
			c0.4-0.4,0.9-0.6,1.5-0.6c0.5,0,1.1,0.2,1.4,0.6c0.4,0.4,0.6,0.9,0.6,1.4s-0.2,1.1-0.6,1.5l-6.6,6.6c-0.6,0.6-1.4,0.9-2.2,0.9
			S1.5,15,0.9,14.4c-1.2-1.2-1.2-3.2,0-4.4L9,1.9c0.8-0.8,1.8-1.2,2.9-1.2c1.1,0,2.1,0.4,2.9,1.2c1.6,1.6,1.6,4.2,0,5.8l-6.2,6.2
			C8.6,14,8.4,14,8.3,14c-0.1,0-0.2,0-0.3-0.1l-0.2-0.2c-0.1-0.1-0.1-0.2-0.1-0.3c0-0.1,0.1-0.2,0.1-0.3l4.7-4.7l1.5-1.5
			c1.1-1.1,1.1-3,0-4.1c-0.5-0.5-1.3-0.9-2.1-0.9c-0.8,0-1.5,0.3-2,0.9l-8.1,8.1c-0.4,0.4-0.5,0.8-0.5,1.3S1.4,13.2,1.8,13.5z
			 M3.1,14.1c-0.5,0-1-0.2-1.3-0.6c-0.4-0.4-0.6-0.8-0.6-1.3s0.2-1,0.6-1.3l8.1-8.1c0.6-0.5,1.3-0.9,2.1-0.9c0.8,0,1.5,0.3,2.1,0.9
			c1.1,1.1,1.1,3,0,4.1l-6.1,6.1c-0.1,0.1-0.1,0.2-0.1,0.3c0,0.1,0,0.2,0.1,0.3L8,13.9C8.1,13.9,8.2,14,8.3,14c0.1,0,0.2,0,0.3-0.1
			l6.2-6.2c1.6-1.6,1.6-4.2,0-5.7C14,1.2,13,0.8,11.9,0.8c-1.1,0-2.1,0.4-2.9,1.2L0.9,10c-1.2,1.2-1.2,3.1,0,4.3
			c0.6,0.6,1.3,0.9,2.2,0.9s1.6-0.3,2.2-0.9l6.6-6.6c0.4-0.4,0.6-0.9,0.6-1.4c0-0.5-0.2-1.1-0.6-1.4c-0.4-0.4-0.9-0.6-1.4-0.6
			S9.4,4.5,9,4.9L5.6,8.3c-0.2,0.2-0.2,0.4,0,0.6l0.2,0.2C5.9,9.2,6,9.2,6.1,9.2c0.1,0,0.2,0,0.3-0.1l3.5-3.5
			c0.2-0.1,0.4-0.2,0.6-0.2c0.2,0,0.5,0.1,0.6,0.3c0.3,0.3,0.3,0.9,0,1.2l-6.6,6.6C4.1,13.9,3.6,14.1,3.1,14.1z"/>
	</g>
	<g>
	</g>
</g>
</svg>
