<?xml version="1.0" encoding="UTF-8"?>
<svg xmlns="http://www.w3.org/2000/svg" xmlns:xlink="http://www.w3.org/1999/xlink" width="208pt" height="208pt" viewBox="0 0 208 208" version="1.1">
<g id="surface1">
<path style=" stroke:none;fill-rule:nonzero;fill:#E31E24;fill-opacity:1;" d="M 171.242188 154.746094 L 154.714844 171.242188 C 151.699219 174.289063 146.773438 174.289063 143.726563 171.242188 L 102.425781 129.96875 L 61.152344 171.242188 C 58.105469 174.289063 53.152344 174.289063 50.136719 171.242188 L 33.609375 154.746094 C 30.5625 151.699219 30.5625 146.773438 33.609375 143.726563 L 74.878906 102.425781 L 33.609375 61.152344 C 30.59375 58.074219 30.59375 53.121094 33.609375 50.136719 L 50.136719 33.609375 C 53.152344 30.5625 58.105469 30.5625 61.152344 33.609375 L 102.425781 74.910156 L 143.726563 33.609375 C 146.773438 30.5625 151.726563 30.5625 154.714844 33.609375 L 171.242188 50.105469 C 174.289063 53.152344 174.289063 58.105469 171.269531 61.152344 L 129.96875 102.425781 L 171.242188 143.726563 C 174.289063 146.773438 174.289063 151.699219 171.242188 154.746094 Z "/>
</g>
</svg>
