<?xml version="1.0" encoding="UTF-8"?>
<svg xmlns="http://www.w3.org/2000/svg" xmlns:xlink="http://www.w3.org/1999/xlink" width="512pt" height="512pt" viewBox="0 0 512 512" version="1.1">
<g id="surface1">
<path style=" stroke:none;fill-rule:nonzero;fill:#E31E25;fill-opacity:1;" d="M 56 16 C 42.78125 16 32 26.78125 32 40 C 32 50.40625 38.71875 59.21875 48 62.53125 L 48 440 C 48 453.21875 58.78125 464 72 464 L 85.75 464 L 82.71875 476.125 C 81.53125 480.9375 82.59375 485.96875 85.625 489.875 C 88.6875 493.75 93.28125 496 98.25 496 L 113.75 496 C 121.125 496 127.5 491.03125 129.25 483.875 L 134.25 464 L 361.75 464 L 366.75 483.875 C 368.5 491.03125 374.875 496 382.25 496 L 397.75 496 C 402.71875 496 407.3125 493.75 410.375 489.84375 C 413.40625 485.9375 414.46875 480.9375 413.25 476.125 L 410.25 464 L 424 464 C 437.21875 464 448 453.21875 448 440 L 448 62.53125 C 457.28125 59.21875 464 50.40625 464 40 C 464 26.78125 453.21875 16 440 16 Z M 56 32 L 440 32 C 444.40625 32 448 35.59375 448 40 C 448 44.40625 444.40625 48 440 48 L 56 48 C 51.59375 48 48 44.40625 48 40 C 48 35.59375 51.59375 32 56 32 Z M 64 64 L 240 64 L 240 448 L 72 448 C 67.59375 448 64 444.40625 64 440 Z M 256 64 L 432 64 L 432 440 C 432 444.40625 428.40625 448 424 448 L 256 448 Z M 200 208 C 195.5625 208 192 211.5625 192 216 L 192 264 C 192 268.4375 195.5625 272 200 272 C 204.4375 272 208 268.4375 208 264 L 208 216 C 208 211.5625 204.4375 208 200 208 Z M 296 208 C 291.5625 208 288 211.5625 288 216 L 288 264 C 288 268.4375 291.5625 272 296 272 C 300.4375 272 304 268.4375 304 264 L 304 216 C 304 211.5625 300.4375 208 296 208 Z M 88 400 C 83.5625 400 80 403.5625 80 408 L 80 424 C 80 428.4375 83.5625 432 88 432 C 92.4375 432 96 428.4375 96 424 L 96 408 C 96 403.5625 92.4375 400 88 400 Z M 128 400 C 123.5625 400 120 403.5625 120 408 L 120 424 C 120 428.4375 123.5625 432 128 432 C 132.4375 432 136 428.4375 136 424 L 136 408 C 136 403.5625 132.4375 400 128 400 Z M 168 400 C 163.5625 400 160 403.5625 160 408 L 160 424 C 160 428.4375 163.5625 432 168 432 C 172.4375 432 176 428.4375 176 424 L 176 408 C 176 403.5625 172.4375 400 168 400 Z M 208 400 C 203.5625 400 200 403.5625 200 408 L 200 424 C 200 428.4375 203.5625 432 208 432 C 212.4375 432 216 428.4375 216 424 L 216 408 C 216 403.5625 212.4375 400 208 400 Z M 288 400 C 283.5625 400 280 403.5625 280 408 L 280 424 C 280 428.4375 283.5625 432 288 432 C 292.4375 432 296 428.4375 296 424 L 296 408 C 296 403.5625 292.4375 400 288 400 Z M 328 400 C 323.5625 400 320 403.5625 320 408 L 320 424 C 320 428.4375 323.5625 432 328 432 C 332.4375 432 336 428.4375 336 424 L 336 408 C 336 403.5625 332.4375 400 328 400 Z M 368 400 C 363.5625 400 360 403.5625 360 408 L 360 424 C 360 428.4375 363.5625 432 368 432 C 372.4375 432 376 428.4375 376 424 L 376 408 C 376 403.5625 372.4375 400 368 400 Z M 408 400 C 403.5625 400 400 403.5625 400 408 L 400 424 C 400 428.4375 403.5625 432 408 432 C 412.4375 432 416 428.4375 416 424 L 416 408 C 416 403.5625 412.4375 400 408 400 Z M 102.25 464 L 117.75 464 L 113.75 480 L 98.25 480 Z M 378.25 464 L 393.75 464 L 397.75 480 L 382.25 480 Z "/>
</g>
</svg>
