<svg width="18" height="22" viewBox="0 0 18 22" fill="none" xmlns="http://www.w3.org/2000/svg">
<path d="M17.3618 0.649902H0.637695C0.543436 0.649956 0.453052 0.687425 0.3864 0.754076C0.319749 0.820728 0.28228 0.911111 0.282227 1.00537V19.3961C0.282227 19.4904 0.319678 19.5808 0.386341 19.6475C0.453004 19.7141 0.543419 19.7516 0.637695 19.7516H0.892211V20.9953C0.892265 21.0896 0.929733 21.18 0.996385 21.2466C1.06304 21.3133 1.15342 21.3507 1.24768 21.3508H2.84668C2.94096 21.3508 3.03137 21.3133 3.09803 21.2467C3.1647 21.18 3.20215 21.0896 3.20215 20.9953V19.7516H14.7973V20.9953C14.7973 21.0896 14.8348 21.18 14.9014 21.2467C14.9681 21.3133 15.0585 21.3508 15.1528 21.3508H16.7518C16.8461 21.3508 16.9365 21.3133 17.0032 21.2467C17.0698 21.18 17.1073 21.0896 17.1073 20.9953V19.7516H17.3618C17.4085 19.7516 17.4547 19.7424 17.4979 19.7246C17.541 19.7067 17.5802 19.6805 17.6132 19.6475C17.6462 19.6145 17.6724 19.5753 17.6903 19.5322C17.7081 19.489 17.7173 19.4428 17.7173 19.3961V1.00537C17.7173 0.911095 17.6798 0.82068 17.6131 0.754017C17.5465 0.687354 17.4561 0.649902 17.3618 0.649902ZM9.35521 19.0406V16.4932H17.0063V19.0406H9.35521ZM0.993164 19.0406V13.2347H8.64427V19.0406H0.993164ZM15.5978 4.94051H10.1157C10.0557 4.77498 9.96003 4.62469 9.8354 4.50034C9.69468 4.3578 9.51999 4.25345 9.32778 4.19712C9.13558 4.1408 8.93219 4.13435 8.7368 4.17839C8.54141 4.22243 8.36046 4.31551 8.211 4.44885C8.06154 4.58219 7.94851 4.75139 7.88255 4.94051H2.40265V2.77804H15.5968L15.5978 4.94051ZM9.25669 4.94051H8.73568C8.81365 4.88775 8.90559 4.85945 8.99974 4.85926C9.09119 4.86056 9.18022 4.88882 9.25568 4.94051H9.25669ZM2.40366 5.65145H8.00768C8.05716 5.67772 8.11233 5.69145 8.16835 5.69145C8.22437 5.69145 8.27954 5.67772 8.32902 5.65145H9.35602C9.33012 5.68067 9.30071 5.7066 9.26847 5.72864C9.10834 5.84011 8.97242 5.98284 8.86891 6.14824C8.76541 6.31364 8.69646 6.49828 8.66621 6.69104L3.92609 8.78323C3.85156 8.81624 3.79063 8.87384 3.7535 8.94641C3.71636 9.01897 3.70528 9.10208 3.7221 9.18184C3.73892 9.26159 3.78263 9.33315 3.84591 9.38453C3.90918 9.43592 3.98818 9.46401 4.06969 9.46411H13.9298C14.0113 9.46401 14.0903 9.43592 14.1536 9.38453C14.2169 9.33315 14.2606 9.26159 14.2774 9.18184C14.2942 9.10208 14.2831 9.01897 14.246 8.94641C14.2089 8.87384 14.1479 8.81624 14.0734 8.78323L9.38913 6.71562C9.43388 6.55331 9.53361 6.41158 9.67127 6.31465C9.90161 6.15603 10.0685 5.92115 10.1425 5.65145H15.5968V12.5238H2.40265L2.40366 5.65145ZM8.99974 7.32093L12.2443 8.75317H5.75523L8.99974 7.32093ZM9.35521 15.7823V13.2347H17.0063V15.7823H9.35521ZM17.0063 1.36043V12.5238H16.3078V2.42257C16.3077 2.32831 16.2702 2.23793 16.2036 2.17128C16.1369 2.10463 16.0466 2.06716 15.9523 2.06711H2.04718C1.95292 2.06716 1.86254 2.10463 1.79588 2.17128C1.72923 2.23793 1.69176 2.32831 1.69171 2.42257V12.5238H0.993164V1.36084L17.0063 1.36043ZM2.49121 20.6398H1.60315V19.7516H2.49121V20.6398ZM16.3963 20.6398H15.5083V19.7516H16.3963V20.6398Z" fill="#E31E24"/>
</svg>
