<svg width="10" height="12" viewBox="0 0 10 12" fill="none" xmlns="http://www.w3.org/2000/svg">
<path d="M0.649414 2.96094C0.649414 2.35026 0.847656 1.85579 1.24414 1.47754C1.64062 1.09473 2.16016 0.90332 2.80273 0.90332C3.45443 0.90332 3.97852 1.09245 4.375 1.4707C4.77148 1.8444 4.96973 2.35254 4.96973 2.99512V3.4873C4.96973 4.10254 4.77148 4.59701 4.375 4.9707C3.97852 5.3444 3.45898 5.53125 2.81641 5.53125C2.16927 5.53125 1.64518 5.3444 1.24414 4.9707C0.847656 4.59245 0.649414 4.08431 0.649414 3.44629V2.96094ZM1.96191 3.4873C1.96191 3.76074 2.03939 3.98177 2.19434 4.15039C2.35384 4.31445 2.5612 4.39648 2.81641 4.39648C3.07161 4.39648 3.27441 4.31217 3.4248 4.14355C3.5752 3.97493 3.65039 3.74935 3.65039 3.4668V2.96094C3.65039 2.6875 3.5752 2.46647 3.4248 2.29785C3.27441 2.12923 3.06706 2.04492 2.80273 2.04492C2.55208 2.04492 2.34928 2.12923 2.19434 2.29785C2.03939 2.46191 1.96191 2.69206 1.96191 2.98828V3.4873ZM5.40723 8.55957C5.40723 7.94434 5.60775 7.44987 6.00879 7.07617C6.40983 6.69792 6.92936 6.50879 7.56738 6.50879C8.21452 6.50879 8.73633 6.69564 9.13281 7.06934C9.53385 7.43848 9.73438 7.94889 9.73438 8.60059V9.09277C9.73438 9.70345 9.53841 10.1979 9.14648 10.5762C8.75456 10.9499 8.23275 11.1367 7.58105 11.1367C6.9248 11.1367 6.39844 10.9476 6.00195 10.5693C5.60547 10.1911 5.40723 9.68978 5.40723 9.06543V8.55957ZM6.71973 9.09277C6.71973 9.34342 6.80176 9.55762 6.96582 9.73535C7.12988 9.91309 7.33496 10.002 7.58105 10.002C8.13704 10.002 8.41504 9.69434 8.41504 9.0791V8.55957C8.41504 8.28613 8.33757 8.06738 8.18262 7.90332C8.02767 7.7347 7.82259 7.65039 7.56738 7.65039C7.31217 7.65039 7.1071 7.7347 6.95215 7.90332C6.7972 8.06738 6.71973 8.29297 6.71973 8.58008V9.09277ZM3.20605 10.2549L2.24219 9.73535L7.10254 1.95605L8.06641 2.47559L3.20605 10.2549Z" fill="#E31E24"/>
</svg>
