<?xml version="1.0" encoding="UTF-8"?>
<svg xmlns="http://www.w3.org/2000/svg" xmlns:xlink="http://www.w3.org/1999/xlink" width="208pt" height="208pt" viewBox="0 0 208 208" version="1.1">
<g id="surface1">
<path style=" stroke:none;fill-rule:nonzero;fill:#E31E25;fill-opacity:1;" d="M 31.515625 55.152344 C 31.515625 51.210938 32.316406 46.472656 33.886719 43.332031 C 35.453125 40.195313 37.023438 36.253906 40.195313 33.085938 C 43.332031 29.945313 46.472656 27.574219 50.410156 26.007813 C 54.351563 24.4375 59.089844 23.636719 64.601563 23.636719 C 70.109375 23.636719 74.847656 24.4375 78.789063 26.007813 C 82.726563 27.574219 86.667969 29.945313 89.035156 33.085938 C 92.175781 35.453125 94.546875 39.394531 95.34375 43.332031 C 96.113281 47.273438 97.683594 51.210938 97.683594 55.152344 L 97.683594 63.03125 C 97.683594 66.96875 96.914063 71.710938 95.34375 74.847656 C 93.746094 77.988281 92.175781 81.925781 89.035156 85.097656 C 85.867188 88.234375 82.726563 89.804688 78.789063 92.175781 C 74.847656 93.746094 70.109375 94.546875 64.601563 94.546875 C 59.089844 94.546875 54.351563 93.746094 50.410156 92.175781 C 46.472656 90.605469 42.53125 88.234375 40.195313 85.097656 C 37.023438 82.726563 35.453125 78.789063 33.886719 75.648438 C 32.316406 72.480469 31.515625 67.769531 31.515625 63.03125 Z M 52.011719 63.03125 C 52.011719 64.601563 52.011719 66.96875 52.78125 68.539063 C 52.78125 70.109375 53.582031 71.710938 55.152344 73.277344 C 55.953125 74.847656 57.519531 75.648438 59.089844 76.417969 C 60.660156 77.21875 62.230469 77.21875 64.601563 77.21875 C 66.96875 77.21875 68.539063 77.21875 70.109375 76.417969 C 71.710938 75.648438 73.277344 74.847656 74.046875 73.277344 C 74.847656 71.710938 75.648438 70.109375 76.417969 68.539063 C 77.21875 66.96875 77.21875 65.398438 77.21875 63.03125 L 77.21875 55.152344 C 77.21875 53.582031 77.21875 51.210938 76.417969 49.640625 C 76.417969 48.074219 75.648438 46.472656 74.046875 45.703125 C 73.277344 44.132813 71.710938 43.332031 70.109375 42.53125 C 68.539063 41.765625 66.96875 40.964844 64.601563 40.964844 C 62.230469 40.964844 60.660156 40.964844 59.089844 41.765625 C 57.519531 43.332031 55.953125 44.132813 55.152344 45.703125 C 53.582031 46.472656 52.78125 48.074219 52.78125 49.640625 C 52.011719 51.210938 52.011719 53.582031 52.011719 55.152344 Z M 71.710938 167.824219 L 56.722656 159.945313 L 131.570313 40.195313 L 146.558594 48.074219 Z M 107.164063 141.816406 C 107.164063 137.878906 107.933594 133.140625 109.503906 130 C 111.101563 126.0625 113.441406 122.921875 115.8125 119.75 C 118.980469 116.613281 122.121094 115.042969 126.0625 112.671875 C 130 110.304688 134.738281 110.304688 140.25 110.304688 C 145.757813 110.304688 150.496094 111.101563 154.4375 112.671875 C 158.375 114.242188 162.316406 116.613281 164.65625 119.75 C 167.824219 122.921875 169.394531 126.0625 170.964844 130 C 172.53125 133.9375 173.332031 137.878906 173.332031 141.816406 L 173.332031 149.695313 C 173.332031 153.636719 172.53125 158.375 170.964844 161.515625 C 169.394531 165.453125 167.824219 168.59375 164.65625 171.765625 C 161.515625 174.902344 158.375 176.472656 154.4375 178.84375 C 150.496094 180.410156 145.757813 181.210938 140.25 181.210938 C 134.738281 181.210938 130 180.410156 126.0625 178.84375 C 122.121094 177.273438 118.183594 174.902344 115.8125 171.765625 C 112.671875 168.59375 111.101563 165.453125 109.503906 161.515625 C 107.933594 157.574219 107.164063 153.636719 107.164063 149.695313 Z M 126.859375 149.695313 C 126.859375 151.265625 126.859375 153.636719 127.628906 155.207031 C 128.429688 156.777344 129.199219 158.375 130 159.945313 C 130.800781 161.515625 132.371094 162.316406 133.9375 163.085938 C 135.507813 163.886719 137.078125 163.886719 139.449219 163.886719 C 141.816406 163.886719 144.1875 163.886719 145.757813 163.085938 C 147.328125 162.316406 148.898438 161.515625 149.695313 159.945313 C 150.496094 158.375 151.265625 156.777344 152.066406 155.207031 C 152.835938 153.636719 152.835938 152.066406 152.835938 149.695313 L 152.835938 141.816406 C 152.835938 140.25 152.835938 137.878906 152.066406 136.308594 C 151.265625 134.738281 150.496094 133.140625 149.695313 131.570313 C 148.898438 130 147.328125 129.199219 145.757813 128.429688 C 144.1875 127.628906 142.617188 127.628906 140.25 127.628906 C 137.878906 127.628906 136.308594 127.628906 134.738281 128.429688 C 133.140625 129.199219 131.570313 130 130.800781 131.570313 C 130 133.140625 129.199219 134.738281 128.429688 136.308594 C 127.628906 137.878906 127.628906 139.449219 127.628906 141.816406 L 127.628906 149.695313 Z "/>
</g>
</svg>
