<svg width="25" height="25" viewBox="0 0 25 25" fill="none" xmlns="http://www.w3.org/2000/svg">
<path d="M25.0515 22.771L18.8886 16.5827C20.4732 14.7641 21.3414 12.4759 21.3414 10.0937C21.3414 4.52814 16.6513 0 10.8865 0C5.12179 0 0.431641 4.52814 0.431641 10.0937C0.431641 15.6593 5.12179 20.1875 10.8865 20.1875C13.0507 20.1875 15.113 19.5573 16.8763 18.361L23.086 24.5963C23.3456 24.8565 23.6947 25 24.0688 25C24.4229 25 24.7588 24.8697 25.0138 24.6327C25.5556 24.1293 25.5729 23.2946 25.0515 22.771ZM10.8865 2.63315C15.1476 2.63315 18.614 5.97988 18.614 10.0937C18.614 14.2076 15.1476 17.5543 10.8865 17.5543C6.62548 17.5543 3.159 14.2076 3.159 10.0937C3.159 5.97988 6.62548 2.63315 10.8865 2.63315Z" fill="#E31E24"/>
</svg>
